<?xml version="1.0" encoding="UTF-8"?> <svg xmlns="http://www.w3.org/2000/svg" width="952" height="213" viewBox="0 0 952 213" fill="none"><path fill-rule="evenodd" clip-rule="evenodd" d="M41.1563 113.431H67.9997V20.1471H109.199V1.83643H0.341797V20.1471H41.1563V113.431Z" fill="#F58531"></path><path fill-rule="evenodd" clip-rule="evenodd" d="M853.288 113.431H949.648V95.1201H880.132V65.5209H945.739V48.1258H880.132V20.1471H949.273V1.83643H853.279V113.431H853.288ZM799.61 113.431L844.893 1.83643H817.125L779.679 95.7243H779.304L741.84 1.83643H714.374L759.318 113.431H799.61ZM633.734 1.83643V113.431H726.368V95.1201H660.733V1.83643H633.734ZM554.715 0.920898C547.061 0.920898 540.176 1.06739 534.207 1.516C528.336 1.95295 522.528 3.00236 516.876 4.64712C511.108 6.29508 506.805 8.81279 503.82 12.2369C500.568 16.0067 498.384 20.5774 497.494 25.4755C496.31 31.1502 495.745 36.9367 495.809 42.7333V73.2297C495.809 88.5557 499.352 98.9653 506.438 104.632C511.099 108.643 517.059 111.169 524.337 112.506C533.215 113.841 542.186 114.454 551.162 114.337C559.924 114.337 567.385 114.181 573.538 113.742C579.711 113.28 585.824 112.222 591.794 110.583C597.571 108.954 602.24 106.271 605.398 102.701C608.096 99.4918 610.356 95.939 612.118 92.1354C613.803 88.4184 614.545 83.209 614.545 76.5165V40.5269C614.545 32.049 613.418 25.503 611.185 21.0352C609.134 16.723 607.266 13.894 605.783 12.5573C602.981 9.14239 598.889 6.60636 593.103 4.9584C587.224 3.18078 581.16 2.08412 575.03 1.68995C568.887 1.24134 561.975 0.93921 554.724 0.93921M555.09 19.2499C559.75 19.2499 564.245 19.3964 568.319 19.5428C574.85 20.2936 579.693 21.9293 582.849 24.4501C586.026 27.5812 587.518 32.635 587.518 39.6296V73.2572C587.572 76.6267 587.131 79.9858 586.209 83.2273C585.547 85.7524 584.406 88.1269 582.849 90.222C580.624 92.4559 577.447 93.939 573.162 94.7996C568.878 95.6602 562.771 96.1729 554.531 96.3194C546.145 96.1821 539.81 95.7335 535.699 94.9919C531.597 94.3877 528.43 92.758 526.388 90.222C523.779 86.7796 522.488 80.3708 522.488 71.3345V44.8482C522.477 43.6976 522.354 42.5508 522.122 41.4241C522.671 34.7315 523.797 29.6686 525.646 26.5467C527.331 23.7146 530.502 21.7798 535.159 20.7422C539.819 19.7076 546.337 19.259 555.099 19.259M422.209 0.948365C401.711 0.948365 387.73 3.33791 380.461 7.94304C373.375 12.8503 369.841 21.676 369.841 34.1364C370.399 46.1848 374.318 54.2141 381.578 58.5354C384.663 60.3027 387.992 61.6047 391.457 62.3989C395.312 63.3822 399.235 64.0799 403.194 64.4864C407.112 64.9258 411.388 65.2279 415.691 65.4019C420.159 65.5575 424.846 65.704 429.854 65.8505C432.656 66.0061 435.265 66.0061 437.673 66.1435C439.916 66.2899 441.774 66.4456 443.267 66.5921C444.786 66.7449 446.286 67.0517 447.744 67.5076C449.081 67.8657 450.342 68.4678 451.461 69.2837C454.079 71.5176 455.379 75.0882 455.379 80.2701C455.379 87.5944 453.328 92.3277 449.236 94.2595C446.506 95.4077 443.61 96.1095 440.657 96.3377C437.114 96.7772 432.079 97.0793 425.185 97.2533C423.27 97.0426 421.344 96.9417 419.417 96.9511C415.176 96.8863 410.943 96.5806 406.737 96.0356C404.187 95.7708 401.748 94.8498 399.66 93.3623C398.058 92.3473 396.92 90.7422 396.492 88.8945C395.803 86.3716 395.427 83.7731 395.375 81.1582C395.627 80.1336 395.753 79.0822 395.751 78.0271H369.081C369.032 82.1025 369.218 86.1773 369.64 90.2311C370.03 93.4456 370.975 96.568 372.432 99.4597C374.125 102.674 376.632 105.389 379.701 107.333C384.671 110.599 390.369 112.593 396.291 113.138C403.966 113.993 411.685 114.4 419.408 114.355H429.479C449.62 114.355 463.033 112.405 469.561 108.523C473.839 105.999 477.225 102.203 479.247 97.6653C481.39 92.4379 482.467 86.835 482.415 81.1857C482.223 77.3038 482.223 74.484 482.049 72.8452C481.797 70.8401 481.421 68.8526 480.923 66.8942C480.275 64.5744 479.271 62.3692 477.947 60.3573C476.594 58.1621 474.736 56.3226 472.527 54.9923C468.599 52.7218 463.198 51.0738 455.929 50.1583C448.659 49.4258 439.522 48.6751 428.527 48.0892C425.359 47.9427 421.825 47.6314 418.09 47.4849C414.907 47.3647 411.734 47.059 408.586 46.5694C406.294 46.1968 404.048 45.5831 401.885 44.7383C400.968 44.4563 400.125 43.9752 399.416 43.3294C398.707 42.6837 398.149 41.8893 397.783 41.0029C396.993 38.3931 396.553 35.6901 396.474 32.9646C396.474 29.6961 396.849 27.3066 397.6 25.6403C398.34 23.9708 399.577 22.5704 401.143 21.6303C404.302 19.6985 411.214 18.6456 421.834 18.6456H432.82C441.976 18.6456 447.551 19.6985 449.602 21.6303C451.433 23.2599 452.395 26.0889 452.395 30.2546V34.7132H479.458C479.563 29.1907 478.878 23.6816 477.425 18.3526C476.107 14.0313 473.131 10.4608 468.471 7.36625C463.991 4.38772 457.467 2.45289 448.897 1.56177C443.496 1.11316 434.734 0.957521 422.255 0.957521M296.626 0.957521C276.127 0.957521 262.147 3.35622 254.878 7.96135C247.791 12.8594 244.257 21.6943 244.257 34.1456C244.816 46.194 248.725 54.2324 256.004 58.5445C259.086 60.3157 262.416 61.6178 265.882 62.4081C269.738 63.3914 273.661 64.0891 277.619 64.4955C281.538 64.9441 285.859 65.2371 290.107 65.411C294.575 65.5667 299.263 65.7132 304.27 65.8597C307.072 66.0153 309.681 66.0153 312.098 66.1618C314.341 66.2991 316.2 66.4547 317.692 66.6012C319.211 66.7559 320.711 67.0626 322.169 67.5168C323.508 67.8788 324.771 68.4806 325.895 69.2929C328.505 71.5268 329.805 75.0974 329.805 80.2793C329.805 87.6036 327.754 92.3369 323.652 94.2686C320.926 95.4158 318.032 96.1175 315.083 96.3469C311.54 96.7955 306.504 97.0976 299.61 97.2624C297.692 97.0518 295.763 96.9509 293.833 96.9603C289.593 96.8951 285.359 96.5894 281.153 96.0448C278.602 95.7845 276.163 94.863 274.076 93.3714C272.477 92.3571 271.34 90.7563 270.908 88.9128C270.221 86.3892 269.843 83.7914 269.782 81.1765C270.039 80.1496 270.165 79.0946 270.158 78.0362H243.461C243.412 82.1116 243.598 86.1864 244.019 90.2403C244.406 93.4556 245.351 96.5788 246.812 99.4689C248.505 102.686 251.011 105.404 254.081 107.352C259.07 110.61 264.782 112.593 270.716 113.129C278.392 113.98 286.111 114.386 293.833 114.346H303.904C324.046 114.346 337.449 112.387 343.977 108.505C348.258 105.984 351.647 102.192 353.673 97.6561C355.814 92.4281 356.891 86.8257 356.84 81.1765C356.648 77.2947 356.648 74.4748 356.465 72.836C356.226 70.8297 355.853 68.8416 355.348 66.885C354.697 64.5665 353.693 62.3618 352.373 60.3481C351.023 58.1561 349.168 56.3194 346.962 54.9923C342.988 52.7218 337.55 51.0738 330.317 50.1583C323.048 49.4167 313.911 48.6659 302.916 48.08C299.748 47.9335 296.205 47.6314 292.478 47.4849C289.296 47.3609 286.123 47.0552 282.975 46.5694C280.684 46.2158 278.437 45.6173 276.274 44.7841C275.353 44.4954 274.508 44.0067 273.799 43.353C273.09 42.6993 272.534 41.8967 272.172 41.0029C271.381 38.3933 270.941 35.6902 270.863 32.9646C270.863 29.6961 271.238 27.3157 271.989 25.6403C272.728 23.9706 273.961 22.5679 275.523 21.6211C278.691 19.6893 285.594 18.6365 296.205 18.6365H307.191C316.346 18.6365 321.913 19.6893 323.964 21.6211C325.795 23.2507 326.765 26.0797 326.765 30.2454V34.7041H353.792C353.9 29.1802 353.209 23.6697 351.741 18.3435C350.432 14.0313 347.456 10.4608 342.796 7.3571C338.322 4.38467 331.798 2.44984 323.222 1.55262C317.82 1.10401 309.059 0.957521 296.58 0.957521" fill="#F58531"></path><path fill-rule="evenodd" clip-rule="evenodd" d="M126.264 46.7708H223.805V68.3499H126.264V46.7708ZM126.264 91.696H223.805V113.33H126.264V91.696ZM126.264 1.83643H223.805V23.4338H126.264V1.83643Z" fill="#28ABE2"></path><path d="M19.6406 198.804L15.0629 211.548H8.97461L25.4542 167.786H32.1559L48.0038 211.548H41.5218L37.1913 198.804H19.6406ZM35.0581 193.567L28.6494 174.341H28.5212L21.5174 193.567H35.0581Z" fill="black"></path><path d="M79.1885 191.919V211.548H70.0332V167.786H79.1885V184.357H96.2541V167.786H105.409V211.548H96.2541V191.919H79.1885Z" fill="black"></path><path d="M146.534 175.522H123.317V184.677H144.648V192.423H123.317V203.757H147.569V211.502H114.354V167.74H146.534V175.522Z" fill="black"></path><path d="M155.004 167.786H177.132C188.778 167.786 190.911 176.374 190.911 180.155C190.911 184.97 188.467 189.118 184.145 190.574C187.734 192.157 189.684 193.503 189.684 201.67C189.684 208.079 189.684 209.653 191.634 210.386V211.548H181.518C180.748 208.667 180.421 205.684 180.547 202.704C180.547 196.735 180.181 194.419 173.415 194.419H163.967V211.548H155.004V167.786ZM174.697 187.012C179.449 187.012 181.765 185.364 181.765 181.043C181.765 178.727 180.73 175.312 175.356 175.312H163.967V187.012H174.697Z" fill="black"></path><path d="M216.866 166.623C222.661 166.623 237.923 169.122 237.923 189.658C237.923 210.193 222.689 212.702 216.866 212.702C211.043 212.702 195.809 210.202 195.809 189.658C195.809 169.113 211.08 166.623 216.866 166.623ZM216.866 204.956C221.81 204.956 228.768 201.917 228.768 189.658C228.768 177.399 221.819 174.359 216.866 174.359C211.913 174.359 204.964 177.408 204.964 189.658C204.964 201.908 211.931 204.956 216.866 204.956Z" fill="black"></path><path d="M294.337 175.522H271.11V184.677H292.442V192.423H271.11V203.757H295.372V211.502H262.156V167.74H294.337V175.522Z" fill="black"></path><path d="M311.916 203.62H333.706V211.548H302.807V167.786H311.962L311.916 203.62Z" fill="black"></path><path d="M372.222 175.522H349.004V184.677H370.336V192.423H349.004V203.757H373.257V211.502H340.041V167.74H372.222V175.522Z" fill="black"></path><path d="M408.615 182.105C407.883 179.486 406.482 174.543 398.92 174.543C394.534 174.543 388.071 177.472 388.071 189.841C388.071 197.706 391.184 204.783 398.92 204.783C403.983 204.783 407.517 201.917 408.615 196.543H417.771C415.94 206.046 409.723 212.693 398.755 212.693C387.119 212.693 378.76 204.828 378.76 189.713C378.76 174.414 387.604 166.614 398.901 166.614C412.012 166.614 417.313 175.632 417.798 182.096L408.615 182.105Z" fill="black"></path><path d="M443.286 211.548H434.131V175.522H420.92V167.786H456.516V175.522H443.286V211.548Z" fill="black"></path><path d="M461.936 167.786H484.037C495.673 167.786 497.77 176.374 497.77 180.155C497.77 184.97 495.334 189.118 491.004 190.574C494.602 192.157 496.552 193.503 496.552 201.67C496.552 208.079 496.552 209.653 498.502 210.386V211.548H488.431C487.661 208.667 487.334 205.684 487.461 202.704C487.461 196.735 487.094 194.419 480.329 194.419H470.899V211.548H461.936V167.786ZM481.629 187.012C486.38 187.012 488.697 185.364 488.697 181.043C488.697 178.727 487.662 175.312 482.288 175.312H470.899V187.012H481.629Z" fill="black"></path><path d="M523.797 166.623C529.593 166.623 544.855 169.122 544.855 189.658C544.855 210.193 529.62 212.702 523.797 212.702C517.975 212.702 502.74 210.202 502.74 189.658C502.74 169.113 518.011 166.623 523.797 166.623ZM523.797 204.956C528.741 204.956 535.699 201.917 535.699 189.658C535.699 177.399 528.76 174.359 523.797 174.359C518.835 174.359 511.896 177.408 511.896 189.658C511.896 201.908 518.826 204.956 523.797 204.956Z" fill="black"></path><path d="M578.84 167.786H587.372V211.548H578.217L560.355 180.338H560.236V211.548H551.703V167.786H561.335L578.73 198.255H578.858L578.84 167.786Z" fill="black"></path><path d="M604.558 211.548H595.402V167.786H604.558V211.548Z" fill="black"></path><path d="M648.255 211.548H637.104L628.809 196.643L619.975 211.585H609.309L623.454 189.209L610.105 167.786H621.009L628.809 181.922L636.802 167.786H647.34L633.991 188.843L648.255 211.548Z" fill="black"></path><path d="M695.799 167.786H702.437L686.47 211.548H680.19L664.223 167.786H670.805L683.302 205.085H683.421L695.799 167.786Z" fill="black"></path><path d="M741.2 211.548H708.9V167.786H740.779V173.023H714.806V186.435H738.765V191.672H714.806V206.321H741.2V211.548Z" fill="black"></path><path d="M777.921 167.786H783.653V211.548H777.006L754.768 176.19H754.639V211.548H748.908V167.786H755.949L777.83 203.135H777.921V167.786Z" fill="black"></path><path d="M789.166 167.786H824.698V173.023H809.884V211.548H803.979V173.023H789.166V167.786Z" fill="black"></path><path d="M864.806 167.786V196.167C864.806 205.121 859.193 212.647 847.191 212.647C835.426 212.647 830.363 205.085 830.363 196.918V167.786H836.278V195.334C836.278 204.838 842.064 207.456 847.374 207.456C852.684 207.456 858.891 204.957 858.891 195.453V167.786H864.806Z" fill="black"></path><path d="M880.828 211.548H874.914V167.786H895.156C902.343 167.786 909.54 170.276 909.54 179.541C909.54 186.005 906.244 188.385 903.442 190.024C905.941 191.068 908.441 192.157 908.688 198.264L909.054 206.192C909.109 208.628 909.411 209.543 911.242 210.578V211.558H903.991C903.14 208.875 902.957 202.228 902.957 200.571C902.957 196.973 902.224 192.771 895.156 192.771H880.828V211.548ZM880.828 187.745H894.561C898.892 187.745 903.46 186.655 903.46 180.191C903.46 173.426 898.526 172.867 895.596 172.867H880.828V187.745Z" fill="black"></path><path d="M951.104 211.548H918.795V167.786H950.674V173.023H924.709V186.435H948.669V191.672H924.709V206.321H951.104V211.548Z" fill="black"></path></svg> 