<svg width="143" height="40" viewBox="0 0 143 40" fill="none" xmlns="http://www.w3.org/2000/svg">
<g clip-path="url(#clip0_177_2463)">
<!-- <path d="M69.0586 0.993428V6.07381H62.5167C61.777 6.07381 61.1859 6.65833 61.1859 7.38967V25.8824C61.1859 26.4307 60.7423 26.8693 60.1878 26.8693H55.0875C54.5331 26.8693 54.0895 26.4307 54.0895 25.8824V7.38967C54.0895 6.65833 53.4983 6.07381 52.7587 6.07381H46.2534V0.993428C46.2534 0.445152 46.6604 0.00653076 47.2148 0.00653076H68.0605C68.615 0.00653076 69.0586 0.481394 69.0586 0.993428Z" fill="#344049"/> -->
<!-- <path d="M81.2927 0.00653076V9.61809C81.2927 10.2026 81.8105 10.6784 82.4017 10.6784H87.2435C87.8347 10.6784 88.3158 10.2035 88.3158 9.61809V0.00653076H94.4142C94.9687 0.00653076 95.4123 0.445152 95.4123 0.993428V25.8824C95.4123 26.4307 94.9687 26.8693 94.4142 26.8693H88.3158V17.8422C88.3158 17.2577 87.8356 16.7819 87.2069 16.7819H82.4017C81.8105 16.7819 81.2927 17.2568 81.2927 17.8422V26.833H75.1944C74.6399 26.833 74.1963 26.3944 74.1963 25.8461V0.993428C74.1963 0.445152 74.6399 0.00653076 75.1944 0.00653076H81.2927Z" fill="#344049"/> -->
<!-- <path d="M112.044 20.8392H114.779V25.8824C114.779 26.4307 114.335 26.8693 113.781 26.8693H101.621C101.066 26.8693 100.623 26.4307 100.623 25.8824V20.8392H103.357C103.801 20.8392 104.17 20.474 104.17 20.0353V6.8414C104.17 6.40278 103.838 6.07381 103.394 6.07381H100.622V0.993428C100.622 0.445152 101.065 0.00653076 101.62 0.00653076H113.816C114.371 0.00653076 114.778 0.445152 114.778 0.993428V6.07381H112.005C111.562 6.07381 111.229 6.40278 111.229 6.8414V20.0353C111.229 20.4377 111.598 20.8392 112.042 20.8392H112.044Z" fill="#344049"/> -->
<!-- <path d="M131.411 10.5325C128.787 10.3132 127.05 9.87458 127.05 8.19351V7.60899C127.05 6.51244 127.974 5.59896 129.082 5.59896H132.704C133.813 5.59896 134.737 6.51244 134.737 7.60899V8.19351H140.43C140.984 8.19351 141.428 7.75489 141.428 7.24286V7.1332C141.243 5.30623 140.393 3.55175 139.026 2.3093C137.4 0.8113 135.256 0.00654164 133.001 0.0437129H128.38C126.422 0.0437129 124.499 0.665402 122.947 1.87068C120.989 3.40585 119.842 5.74486 119.917 8.22975C119.917 13.8947 125.054 15.7216 130.155 16.0878C132.188 16.2337 135.218 16.4167 135.218 18.7195V19.4137C135.218 20.5102 134.295 21.4237 133.186 21.4237H128.713C127.604 21.4237 126.68 20.5102 126.68 19.4137V18.7195H120.655C120.101 18.7195 119.657 19.1581 119.657 19.6701V19.8532C119.842 21.8632 120.877 23.6911 122.503 24.9336C124.203 26.2495 126.236 26.9436 128.38 26.9074H133.628C135.476 26.9074 137.325 26.3954 138.914 25.3722C141.057 23.9105 142.499 21.7908 142.499 18.9397C142.499 12.5072 137.288 11.0455 131.41 10.5334L131.411 10.5325Z" fill="#344049"/> -->
<path d="M38.8019 18.4393C36.974 17.4998 34.7082 18.259 33.758 20.1018C33.758 20.2105 33.6847 20.2821 33.6847 20.3546L28.7141 19.6678C28.7141 19.8843 28.7141 20.138 28.6408 20.3908L26.1184 20.0293C26.2284 19.126 26.1184 18.2581 25.8994 17.3911C25.4239 15.8011 24.2914 14.4638 22.8291 13.6321L23.9258 11.3192C24.1448 11.4279 24.4014 11.5357 24.5837 11.7169L26.7039 7.34369C28.7508 7.74142 30.6877 6.40418 31.1266 4.41645C31.5655 2.42872 30.2131 0.513467 28.2029 0.0794923C26.1926 -0.354482 24.2191 1.019 23.7802 3.00673C23.5612 4.23524 23.9268 5.46468 24.8403 6.40418C24.9136 6.47667 24.9502 6.51291 25.0226 6.54915L22.9024 10.9224C23.1214 10.9948 23.3779 11.1026 23.6336 11.2476L22.5002 13.5243C21.0378 12.8738 19.3932 12.7651 17.8585 13.1628C16.8351 13.4881 15.9949 13.9946 15.2271 14.7166L13.3991 12.9816C13.5815 12.8014 13.8747 12.5477 14.057 12.4036L10.4754 8.96993C11.4989 7.19872 10.841 4.92198 9.01309 3.94623C7.22184 2.93425 4.91933 3.58474 3.93254 5.3922C2.90909 7.16341 3.56695 9.44015 5.39487 10.4159C6.52826 10.9939 7.84398 11.0301 8.93979 10.4159C9.01309 10.4159 9.0864 10.3434 9.12211 10.3072L12.667 13.7409C12.8494 13.4881 13.1426 13.2353 13.1426 13.2353L15.0429 14.9341C13.4715 16.5965 12.9227 18.9458 13.6538 21.1138C13.7271 21.439 13.8361 21.6918 14.0194 22.017L11.7536 23.2093C11.6436 22.9928 11.5346 22.7391 11.388 22.4863L7.00192 24.7993C5.6129 23.2456 3.20043 23.1731 1.70239 24.5828C0.167698 25.9563 0.0943939 28.3417 1.52007 29.823C2.90909 31.3405 5.32156 31.413 6.8196 30.0033C7.76974 29.1716 8.17197 27.8706 7.953 26.6421C7.953 26.5696 7.953 26.4971 7.8797 26.4256L12.2657 24.1126C12.1191 23.9323 12.0101 23.6786 11.8635 23.4621L14.0927 22.2698C15.3718 24.5828 17.9675 25.8475 20.5989 25.5223L21.0745 27.9802C20.8555 27.9802 20.5632 28.0527 20.3067 28.0527L21.1478 32.9315C19.2842 33.7632 18.443 35.9674 19.3199 37.8464C20.161 39.6892 22.3902 40.5209 24.2905 39.6539C26.1541 38.8222 26.9952 36.6179 26.1184 34.7389C25.6071 33.6182 24.5104 32.8237 23.267 32.6062H23.0481L22.2069 27.7275C21.9513 27.8 21.6957 27.8362 21.4391 27.9078L20.9636 25.4498C21.1826 25.4498 21.4391 25.3773 21.6948 25.2695C24.0339 24.5465 25.7152 22.5951 26.1541 20.2458L28.6765 20.6073C28.6032 20.8601 28.6032 21.1491 28.4942 21.4028L33.4282 22.0895C33.6471 24.1497 35.5483 25.5948 37.5952 25.342C39.6788 25.0892 41.1402 23.2456 40.8845 21.2216C40.7746 20.0646 39.971 18.9811 38.8376 18.4021L38.801 18.4384L38.8019 18.4393Z" fill="#2D51A3"/>
<!-- <path d="M48.4056 39.6329V33.5749H46.5486C46.4461 33.5749 46.3719 33.5387 46.3249 33.4672C46.2779 33.3956 46.2544 33.2767 46.2544 33.1112V32.8306C46.2544 32.6652 46.2779 32.5462 46.3249 32.4747C46.3719 32.4031 46.4471 32.3669 46.5486 32.3669H51.6921C51.7936 32.3669 51.8688 32.4031 51.9158 32.4747C51.9627 32.5472 51.9872 32.6652 51.9872 32.8306V33.1112C51.9872 33.2767 51.9637 33.3956 51.9158 33.4672C51.8688 33.5396 51.7936 33.5749 51.6921 33.5749H49.8463V39.6329C49.8463 39.842 49.6536 39.9461 49.2674 39.9461H48.9836C48.5973 39.9461 48.4047 39.842 48.4047 39.6329H48.4056Z" fill="#344049"/> -->
<!-- <path d="M55.733 39.0066C55.1363 38.344 54.8374 37.3868 54.8374 36.1342C54.8374 34.8815 55.1363 33.9364 55.733 33.2776C56.3298 32.6187 57.186 32.2897 58.2996 32.2897C59.4133 32.2897 60.2676 32.6178 60.8606 33.2729C61.4536 33.9281 61.7506 34.8824 61.7506 36.1342C61.7506 37.3859 61.4536 38.344 60.8606 39.0066C60.2666 39.6692 59.4133 40 58.2996 40C57.186 40 56.3298 39.6692 55.733 39.0066ZM59.7685 38.1098C60.1069 37.6563 60.276 36.9975 60.276 36.1332C60.276 35.269 60.1087 34.6148 59.7732 34.1678C59.4387 33.7218 58.9471 33.4987 58.2987 33.4987C57.6502 33.4987 57.1578 33.7218 56.8185 34.1678C56.4802 34.6139 56.311 35.269 56.311 36.1332C56.311 36.9975 56.4802 37.6563 56.8185 38.1098C57.1568 38.5633 57.6502 38.7901 58.2987 38.7901C58.9471 38.7901 59.4293 38.5633 59.7676 38.1098H59.7685Z" fill="#344049"/> -->
<!-- <path d="M65.3325 39.633V32.7646C65.3325 32.628 65.3635 32.5267 65.4255 32.4626C65.4875 32.3976 65.5872 32.3651 65.7263 32.3651H67.7572C68.6669 32.3651 69.3426 32.5305 69.7834 32.8622C70.2241 33.193 70.4441 33.6902 70.4441 34.3528C70.4441 34.77 70.3313 35.1306 70.1057 35.4326C69.8802 35.7346 69.571 35.9614 69.1772 36.1128V36.1556C69.337 36.2132 69.4902 36.3414 69.6358 36.5394C69.7815 36.7373 69.9121 36.9808 70.0287 37.2679L70.9572 39.5577C70.9863 39.659 71.0004 39.7194 71.0004 39.7417C71.0004 39.8783 70.804 39.9471 70.4102 39.9471H70.0822C69.7618 39.9471 69.5729 39.8783 69.5146 39.7417L68.6631 37.6248C68.5325 37.3293 68.3774 37.1248 68.1989 37.0096C68.0203 36.8944 67.7496 36.8368 67.385 36.8368H66.7629V39.6339C66.7629 39.843 66.5702 39.9471 66.1839 39.9471H65.9105C65.5242 39.9471 65.3315 39.843 65.3315 39.6339L65.3325 39.633ZM67.9432 35.6157C68.2195 35.6157 68.4601 35.5097 68.6641 35.2969C68.868 35.0851 68.9695 34.8342 68.9695 34.5461C68.9695 34.2366 68.8708 33.9969 68.6744 33.8277C68.478 33.6586 68.2083 33.574 67.8662 33.574H66.7629V35.6147H67.9423L67.9432 35.6157Z" fill="#344049"/> -->
<!-- <path d="M74.1787 39.633V32.7646C74.1787 32.628 74.2097 32.5267 74.2718 32.4626C74.3338 32.3976 74.4334 32.3651 74.5725 32.3651H76.6034C77.5131 32.3651 78.1888 32.5305 78.6296 32.8622C79.0704 33.193 79.2903 33.6902 79.2903 34.3528C79.2903 34.77 79.1775 35.1306 78.952 35.4326C78.7264 35.7346 78.4172 35.9614 78.0234 36.1128V36.1556C78.1832 36.2132 78.3364 36.3414 78.4821 36.5394C78.6277 36.7373 78.7584 36.9808 78.8749 37.2679L79.8034 39.5577C79.8326 39.659 79.8466 39.7194 79.8466 39.7417C79.8466 39.8783 79.6502 39.9471 79.2574 39.9471H78.9294C78.6089 39.9471 78.42 39.8783 78.3618 39.7417L77.5103 37.6248C77.3787 37.3293 77.2246 37.1248 77.046 37.0096C76.8675 36.8944 76.5968 36.8368 76.2322 36.8368H75.61V39.6339C75.61 39.843 75.4174 39.9471 75.0311 39.9471H74.7576C74.3714 39.9471 74.1787 39.843 74.1787 39.6339V39.633ZM76.7885 35.6157C77.0648 35.6157 77.3054 35.5097 77.5094 35.2969C77.7133 35.0851 77.8148 34.8342 77.8148 34.5461C77.8148 34.2366 77.7161 33.9969 77.5197 33.8277C77.3233 33.6586 77.0536 33.574 76.7115 33.574H75.6081V35.6147H76.7876L76.7885 35.6157Z" fill="#344049"/> -->
<!-- <path d="M84.4988 39.633V36.2095L82.2931 32.7972C82.2207 32.6894 82.1841 32.6067 82.1841 32.5491C82.1841 32.4125 82.3955 32.3437 82.8175 32.3437H83.1671C83.4725 32.3437 83.6699 32.4087 83.7573 32.5379L85.2535 34.968L86.7609 32.5277C86.8483 32.405 87.0485 32.3437 87.3614 32.3437H87.6453C88.0456 32.3437 88.2458 32.4125 88.2458 32.5491C88.2458 32.6141 88.2129 32.6968 88.1471 32.7972L85.9301 36.242V39.633C85.9301 39.8421 85.7375 39.9461 85.3512 39.9461H85.0777C84.6915 39.9461 84.4988 39.8421 84.4988 39.633Z" fill="#344049"/> -->
<!-- <path d="M96.1626 39.633V32.6569C96.1626 32.4478 96.3553 32.3437 96.7415 32.3437H97.0253C97.4116 32.3437 97.6042 32.4478 97.6042 32.6569V35.454H100.902V32.6569C100.902 32.4478 101.095 32.3437 101.481 32.3437H101.765C102.151 32.3437 102.344 32.4478 102.344 32.6569V39.633C102.344 39.8421 102.151 39.9461 101.765 39.9461H101.481C101.095 39.9461 100.902 39.8421 100.902 39.633V36.6741H97.6042V39.633C97.6042 39.8421 97.4116 39.9461 97.0253 39.9461H96.7415C96.3553 39.9461 96.1626 39.8421 96.1626 39.633Z" fill="#344049"/> -->
<!-- <path d="M105.489 39.7296C105.489 39.7082 105.503 39.6469 105.532 39.5456L108 32.5481C108.044 32.4115 108.23 32.3427 108.558 32.3427H109.038C109.358 32.3427 109.544 32.4115 109.595 32.5481L112.063 39.5456C112.085 39.6181 112.096 39.6785 112.096 39.7296C112.096 39.8736 111.921 39.9452 111.572 39.9452H111.233C110.913 39.9452 110.727 39.8764 110.676 39.7398L110.173 38.2604H107.377L106.874 39.7398C106.824 39.8764 106.663 39.9452 106.394 39.9452H106.089C105.688 39.9452 105.488 39.8736 105.488 39.7296H105.489ZM109.76 37.0514L108.963 34.6752C108.904 34.5098 108.854 34.2868 108.81 34.0052H108.766C108.759 34.0489 108.741 34.1418 108.712 34.2858C108.683 34.4299 108.646 34.56 108.603 34.6743L107.783 37.0505H109.76V37.0514Z" fill="#344049"/> -->
<!-- <path d="M115.187 39.633V32.7646C115.187 32.628 115.218 32.5267 115.28 32.4626C115.342 32.3976 115.442 32.3651 115.581 32.3651H117.612C118.521 32.3651 119.197 32.5305 119.638 32.8622C120.079 33.193 120.299 33.6902 120.299 34.3528C120.299 34.77 120.186 35.1306 119.96 35.4326C119.735 35.7346 119.426 35.9614 119.032 36.1128V36.1556C119.192 36.2132 119.345 36.3414 119.49 36.5394C119.636 36.7373 119.767 36.9808 119.883 37.2679L120.812 39.5577C120.841 39.659 120.855 39.7194 120.855 39.7417C120.855 39.8783 120.659 39.9471 120.266 39.9471H119.938C119.617 39.9471 119.428 39.8783 119.37 39.7417L118.519 37.6248C118.387 37.3293 118.233 37.1248 118.054 37.0096C117.876 36.8944 117.605 36.8368 117.24 36.8368H116.618V39.6339C116.618 39.843 116.426 39.9471 116.039 39.9471H115.766C115.38 39.9471 115.187 39.843 115.187 39.6339V39.633ZM117.797 35.6157C118.073 35.6157 118.314 35.5097 118.518 35.2969C118.722 35.0851 118.823 34.8342 118.823 34.5461C118.823 34.2366 118.724 33.9969 118.528 33.8277C118.332 33.6586 118.062 33.574 117.72 33.574H116.616V35.6147H117.796L117.797 35.6157Z" fill="#344049"/> -->
<!-- <path d="M124.033 39.633V32.7646C124.033 32.628 124.064 32.5267 124.126 32.4626C124.188 32.3976 124.288 32.3651 124.427 32.3651H126.458C127.368 32.3651 128.043 32.5305 128.484 32.8622C128.925 33.193 129.145 33.6902 129.145 34.3528C129.145 34.77 129.032 35.1306 128.806 35.4326C128.581 35.7346 128.272 35.9614 127.878 36.1128V36.1556C128.038 36.2132 128.191 36.3414 128.337 36.5394C128.482 36.7373 128.613 36.9808 128.729 37.2679L129.658 39.5577C129.687 39.659 129.701 39.7194 129.701 39.7417C129.701 39.8783 129.505 39.9471 129.112 39.9471H128.784C128.463 39.9471 128.275 39.8783 128.216 39.7417L127.365 37.6248C127.233 37.3293 127.079 37.1248 126.901 37.0096C126.722 36.8944 126.451 36.8368 126.087 36.8368H125.465V39.6339C125.465 39.843 125.272 39.9471 124.886 39.9471H124.612C124.226 39.9471 124.033 39.843 124.033 39.6339V39.633ZM126.643 35.6157C126.919 35.6157 127.16 35.5097 127.364 35.2969C127.568 35.0851 127.669 34.8342 127.669 34.5461C127.669 34.2366 127.571 33.9969 127.374 33.8277C127.178 33.6586 126.908 33.574 126.566 33.574H125.463V35.6147H126.642L126.643 35.6157Z" fill="#344049"/> -->
<!-- <path d="M132.835 39.633V32.6568C132.835 32.4412 133.032 32.3325 133.426 32.3325H133.699C134.085 32.3325 134.278 32.4403 134.278 32.6568V39.633C134.278 39.8485 134.085 39.9573 133.699 39.9573H133.426C133.033 39.9573 132.835 39.8495 132.835 39.633Z" fill="#344049"/> -->
<!-- <path d="M138.748 39.8485C138.366 39.7482 138.07 39.6218 137.858 39.4703C137.676 39.3337 137.585 39.2111 137.585 39.1033C137.585 38.9667 137.657 38.7957 137.803 38.5903C137.949 38.3849 138.069 38.2827 138.163 38.2827C138.206 38.2827 138.297 38.3227 138.436 38.4016C138.662 38.5169 138.884 38.6107 139.103 38.6823C139.321 38.7548 139.576 38.7901 139.867 38.7901C140.195 38.7901 140.469 38.713 140.691 38.5578C140.913 38.4035 141.024 38.1712 141.024 37.8608C141.024 37.6666 140.967 37.503 140.855 37.3692C140.742 37.2363 140.602 37.1248 140.434 37.0347C140.267 36.9445 140.034 36.8386 139.735 36.7159L139.353 36.5542C139.018 36.4102 138.737 36.2569 138.512 36.0952C138.286 35.9335 138.1 35.7151 137.954 35.4419C137.809 35.1687 137.736 34.823 137.736 34.4048C137.736 33.9513 137.851 33.5647 138.08 33.2441C138.31 32.9235 138.617 32.6847 139.003 32.5258C139.389 32.3678 139.811 32.2879 140.27 32.2879C140.598 32.2879 140.915 32.3241 141.22 32.3957C141.526 32.4682 141.762 32.5648 141.93 32.6875C142.083 32.7953 142.159 32.9031 142.159 33.0118C142.159 33.141 142.097 33.3092 141.973 33.5136C141.849 33.719 141.74 33.8212 141.645 33.8212C141.608 33.8212 141.55 33.8036 141.47 33.7673C141.39 33.7311 141.328 33.7023 141.284 33.6809C140.993 33.5582 140.683 33.4969 140.355 33.4969C139.963 33.4969 139.673 33.574 139.487 33.7292C139.301 33.8844 139.209 34.0805 139.209 34.3175C139.209 34.5265 139.263 34.6975 139.372 34.8304C139.481 34.9633 139.617 35.0702 139.777 35.1492C139.936 35.2281 140.173 35.3294 140.486 35.4512C140.902 35.6166 141.244 35.7792 141.512 35.9372C141.782 36.0952 142.013 36.321 142.206 36.6119C142.399 36.9036 142.495 37.2763 142.495 37.7298C142.495 38.4853 142.262 39.0531 141.796 39.4304C141.33 39.8086 140.747 39.9972 140.049 39.9972C139.561 39.9972 139.126 39.947 138.744 39.8457L138.748 39.8485Z" fill="#344049"/> -->
</g>
<defs>
<clipPath id="clip0_177_2463">
<rect width="142" height="40" fill="white" transform="translate(0.5)"/>
</clipPath>
</defs>
</svg>
